<?xml version="1.0" standalone="no"?><!DOCTYPE svg PUBLIC "-//W3C//DTD SVG 1.1//EN" "http://www.w3.org/Graphics/SVG/1.1/DTD/svg11.dtd"><svg t="1710403639966" class="icon" viewBox="0 0 1066 1024" version="1.1" xmlns="http://www.w3.org/2000/svg" p-id="1481" width="200" height="200"><path d="M512 128a298.666667 298.666667 0 0 0-298.666667 298.666667 42.666667 42.666667 0 0 0 85.333334 0 213.333333 213.333333 0 1 1 396.373333 109.653333L543.146667 853.333333A85.333333 85.333333 0 0 1 384 810.666667a42.666667 42.666667 0 0 0-85.333333 0 170.666667 170.666667 0 0 0 170.666666 170.666666 170.666667 170.666667 0 0 0 149.333334-88.32l151.893333-317.013333A298.666667 298.666667 0 0 0 512 128zM213.333333 640a42.666667 42.666667 0 1 0 0 85.333333 42.666667 42.666667 0 0 0 0-85.333333zM793.173333 51.2a42.666667 42.666667 0 1 0-51.2 68.266667A384 384 0 0 1 896 426.666667a42.666667 42.666667 0 1 0 85.333333 0 471.893333 471.893333 0 0 0-188.16-375.466667zM512 384a42.666667 42.666667 0 0 1 42.666667 42.666667 42.666667 42.666667 0 0 0 85.333333 0 128 128 0 1 0-256 0 128 128 0 0 0 21.76 71.68 149.333333 149.333333 0 0 0 20.053333 23.04l8.533334 9.386666a42.666667 42.666667 0 0 1 0 47.36 42.666667 42.666667 0 0 0 34.986666 66.986667 42.666667 42.666667 0 0 0 34.986667-18.346667 128 128 0 0 0-14.933333-162.56l-5.973334-5.973333a58.453333 58.453333 0 0 1-6.826666-7.68A42.666667 42.666667 0 0 1 512 384z m-170.666667 256a42.666667 42.666667 0 1 0 0-85.333333 42.666667 42.666667 0 0 0 0 85.333333z" fill="#42526E" p-id="1482"></path></svg>